<?xml version="1.0" encoding="utf-8"?>
<!-- Generator: Adobe Illustrator 16.0.3, SVG Export Plug-In . SVG Version: 6.00 Build 0)  -->
<!DOCTYPE svg PUBLIC "-//W3C//DTD SVG 1.1//EN" "http://www.w3.org/Graphics/SVG/1.1/DTD/svg11.dtd">
<svg version="1.1" xmlns="http://www.w3.org/2000/svg" xmlns:xlink="http://www.w3.org/1999/xlink" x="0px" y="0px" width="800px"
	 height="799.937px" viewBox="0 0 800 799.937" enable-background="new 0 0 800 799.937" xml:space="preserve">
<g id="MOONHEAD">
	<g id="Logo_1_">
		<rect x="-2.29" y="0.779" width="804.58" height="802.863"/>
		<linearGradient id="SVGID_1_" gradientUnits="userSpaceOnUse" x1="406.9463" y1="-166.2368" x2="401.5316" y2="885.3975">
			<stop  offset="0" style="stop-color:#9154FF"/>
			<stop  offset="1" style="stop-color:#6ABAFF"/>
		</linearGradient>
		<ellipse fill="url(#SVGID_1_)" stroke="#000000" stroke-miterlimit="10" cx="404.007" cy="404.529" rx="362.794" ry="362.765"/>
		<path fill="none" d="M211.992,618.921c-109.85-109.232-110.367-286.813-1.156-396.64
			c109.209-109.828,286.793-110.311,396.643-1.077c109.848,109.232,110.365,286.813,1.154,396.639
			C499.422,727.671,321.84,728.152,211.992,618.921"/>
		<text transform="matrix(0.7408 0.6714 -0.6715 0.741 215.4814 622.4985)" font-family="'Georgia'" font-size="27.2095">L</text>
		<text transform="matrix(0.7685 0.6395 -0.6396 0.7687 228.0752 633.7583)" font-family="'Georgia'" font-size="27.2095"> </text>
		<text transform="matrix(0.7921 0.6101 -0.6102 0.7922 233.4375 638.2964)" font-family="'Georgia'" font-size="27.2095">a</text>
		<text transform="matrix(0.8145 0.5798 -0.5799 0.8147 244.6943 646.8726)" font-family="'Georgia'" font-size="27.2095"> </text>
		<text transform="matrix(0.8285 0.5597 -0.5598 0.8287 250.2803 650.8442)" font-family="'Georgia'" font-size="27.2095"> </text>
		<text transform="matrix(0.8465 0.532 -0.5321 0.8467 256.0078 654.7515)" font-family="'Georgia'" font-size="27.2095">r</text>
		<text transform="matrix(0.8637 0.5036 -0.5037 0.8639 265.791 660.8481)" font-family="'Georgia'" font-size="27.2095"> </text>
		<text transform="matrix(0.8831 0.4688 -0.4689 0.8832 271.832 664.4517)" font-family="'Georgia'" font-size="27.2095">o</text>
		<text transform="matrix(0.901 0.4333 -0.4334 0.9012 285.2451 671.4712)" font-family="'Georgia'" font-size="27.2095"> </text>
		<text transform="matrix(0.9182 0.3956 -0.3957 0.9184 291.5498 674.5952)" font-family="'Georgia'" font-size="27.2095">p</text>
		<text transform="matrix(0.9338 0.3573 -0.3574 0.9339 306.3047 680.8403)" font-family="'Georgia'" font-size="27.2095"> </text>
		<text transform="matrix(0.9466 0.3218 -0.3219 0.9468 312.7891 683.3853)" font-family="'Georgia'" font-size="27.2095">a</text>
		<text transform="matrix(0.9581 0.2857 -0.2857 0.9583 326.249 687.8813)" font-family="'Georgia'" font-size="27.2095"> </text>
		<text transform="matrix(0.9648 0.2622 -0.2623 0.965 332.7988 689.8315)" font-family="'Georgia'" font-size="27.2095"> </text>
		<text transform="matrix(0.9709 0.2386 -0.2387 0.9711 339.3887 691.6196)" font-family="'Georgia'" font-size="27.2095"> </text>
		<text transform="matrix(0.9801 0.1975 -0.1975 0.9803 346.2412 693.395)" font-family="'Georgia'" font-size="27.2095">n</text>
		<text transform="matrix(0.9875 0.1562 -0.1562 0.9877 362.5039 696.5581)" font-family="'Georgia'" font-size="27.2095"> </text>
		<text transform="matrix(0.9929 0.1173 -0.1173 0.9931 369.4199 697.7241)" font-family="'Georgia'" font-size="27.2095">o</text>
		<text transform="matrix(0.9967 0.0783 -0.0783 0.9969 384.4268 699.4077)" font-family="'Georgia'" font-size="27.2095"> </text>
		<text transform="matrix(0.9983 0.0541 -0.0541 0.9985 391.2461 699.9399)" font-family="'Georgia'" font-size="27.2095"> </text>
		<text transform="matrix(0.9994 0.0297 -0.0297 0.9996 398.124 700.3081)" font-family="'Georgia'" font-size="27.2095"> </text>
		<text transform="matrix(0.9998 2.550232e-004 -2.550316e-004 1 405.0127 700.5288)" font-family="'Georgia'" font-size="27.2095">t</text>
		<text transform="matrix(0.9994 -0.0292 0.0292 0.9996 414.7344 700.5054)" font-family="'Georgia'" font-size="27.2095"> </text>
		<text transform="matrix(0.9982 -0.056 0.056 0.9984 421.5996 700.311)" font-family="'Georgia'" font-size="27.2095">i</text>
		<text transform="matrix(0.9964 -0.0827 0.0828 0.9966 429.8633 699.8335)" font-family="'Georgia'" font-size="27.2095"> </text>
		<text transform="matrix(0.9927 -0.1191 0.1192 0.9929 436.8643 699.3032)" font-family="'Georgia'" font-size="27.2095">e</text>
		<text transform="matrix(0.9877 -0.1553 0.1553 0.9879 450.3242 697.6226)" font-family="'Georgia'" font-size="27.2095"> </text>
		<text transform="matrix(0.9803 -0.1966 0.1966 0.9805 457.3096 696.6138)" font-family="'Georgia'" font-size="27.2095">n</text>
		<text transform="matrix(0.9712 -0.2375 0.2376 0.9714 473.4961 693.2554)" font-family="'Georgia'" font-size="27.2095"> </text>
		<text transform="matrix(0.9618 -0.2731 0.2732 0.962 480.3311 691.6382)" font-family="'Georgia'" font-size="27.2095">e</text>
		<text transform="matrix(0.9511 -0.3083 0.3083 0.9513 493.376 687.8638)" font-family="'Georgia'" font-size="27.2095"> </text>
		<text transform="matrix(0.9432 -0.3315 0.3316 0.9434 499.8926 685.7476)" font-family="'Georgia'" font-size="27.2095"> </text>
		<text transform="matrix(0.9348 -0.3545 0.3546 0.935 506.3408 683.4761)" font-family="'Georgia'" font-size="27.2095"> </text>
		<text transform="matrix(0.9206 -0.3899 0.39 0.9208 512.9053 681.0542)" font-family="'Georgia'" font-size="27.2095">g</text>
		<text transform="matrix(0.905 -0.4249 0.4249 0.9052 526.0381 675.4058)" font-family="'Georgia'" font-size="27.2095"> </text>
		<text transform="matrix(0.8887 -0.4581 0.4582 0.8889 532.417 672.4702)" font-family="'Georgia'" font-size="27.2095">e</text>
		<text transform="matrix(0.8711 -0.4907 0.4908 0.8713 544.4707 666.1792)" font-family="'Georgia'" font-size="27.2095"> </text>
		<text transform="matrix(0.8496 -0.5271 0.5272 0.8498 550.6221 662.8188)" font-family="'Georgia'" font-size="27.2095">n</text>
		<text transform="matrix(0.8265 -0.5626 0.5627 0.8266 564.6572 653.981)" font-family="'Georgia'" font-size="27.2095"> </text>
		<text transform="matrix(0.8052 -0.5927 0.5929 0.8053 570.4873 650.0737)" font-family="'Georgia'" font-size="27.2095">e</text>
		<text transform="matrix(0.7829 -0.6218 0.6219 0.7831 581.3672 641.98)" font-family="'Georgia'" font-size="27.2095"> </text>
		<text transform="matrix(0.7621 -0.6471 0.6472 0.7623 586.8115 637.6968)" font-family="'Georgia'" font-size="27.2095">r</text>
		<text transform="matrix(0.7406 -0.6717 0.6718 0.7407 595.5801 630.1929)" font-family="'Georgia'" font-size="27.2095"> </text>
		<text transform="matrix(0.7164 -0.6974 0.6976 0.7165 600.7275 625.5933)" font-family="'Georgia'" font-size="27.2095">o</text>
		<path fill="none" d="M603.438,222.308c107.381,111.658,103.932,289.207-7.705,396.566
			c-111.635,107.361-289.184,103.877-396.566-7.781s-103.932-289.207,7.703-396.567C318.506,107.166,496.055,110.65,603.438,222.308
			"/>
		<text transform="matrix(0.7675 -0.6408 0.6409 0.7676 198.8301 220.3242)" font-family="'Georgia'" font-size="64.3959">M</text>
		<text transform="matrix(0.8609 -0.5084 0.5085 0.861 243.8662 183.8501)" font-family="'Georgia'" font-size="64.3959">o</text>
		<text transform="matrix(0.9155 -0.4019 0.402 0.9157 272.5742 166.8013)" font-family="'Georgia'" font-size="64.3959">o</text>
		<text transform="matrix(0.9586 -0.284 0.2841 0.9588 303.0977 153.2002)" font-family="'Georgia'" font-size="64.3959">n</text>
		<text transform="matrix(0.991 -0.1324 0.1324 0.9912 337.874 142.187)" font-family="'Georgia'" font-size="64.3959">H</text>
		<text transform="matrix(0.9998 0.0097 -0.0098 1 388.4033 136.0933)" font-family="'Georgia'" font-size="64.3959">e</text>
		<text transform="matrix(0.9928 0.1179 -0.118 0.993 418.3828 136.2871)" font-family="'Georgia'" font-size="64.3959">a</text>
		<text transform="matrix(0.9719 0.2347 -0.2348 0.9721 449.3926 139.7593)" font-family="'Georgia'" font-size="64.3959">d</text>
		<text transform="matrix(0.9468 0.3212 -0.3213 0.947 484.25 148.6279)" font-family="'Georgia'" font-size="64.3959"> </text>
		<text transform="matrix(0.9283 0.3714 -0.3714 0.9285 498.4053 153.4131)" font-family="'Georgia'" font-size="64.3959"> </text>
		<text transform="matrix(0.8723 0.4885 -0.4886 0.8725 512.209 157.2979)" font-family="'Georgia'" font-size="64.3959">M</text>
		<text transform="matrix(0.7698 0.638 -0.6382 0.7699 562.3965 185.9414)" font-family="'Georgia'" font-size="64.3959">X</text>
		<g>
			<path stroke="#000000" stroke-miterlimit="10" d="M502.811,211.605c-5.398-7.627-11.814-14.715-19.254-21.065
				c-17.396-14.843-38.078-23.725-59.574-26.869C456.074,169.157,484.084,186.724,502.811,211.605z"/>
			<path stroke="#000000" stroke-miterlimit="10" d="M427.895,236.326c1.5-0.057,2.672-1.295,2.621-2.767
				c-0.049-1.471-1.307-2.618-2.805-2.562c-1.5,0.057-2.674,1.295-2.623,2.767C425.139,235.236,426.395,236.382,427.895,236.326z"/>
			<path stroke="#000000" stroke-miterlimit="10" d="M452.84,350.408l-0.189-0.194c-6.637,1.832-12.91,3.017-19.912,3.813
				C440.268,353.741,446.055,353.947,452.84,350.408z"/>
			<path stroke="#000000" stroke-miterlimit="10" d="M437.488,289.262c1.82-0.068,3.248-1.522,3.189-3.247
				c-0.061-1.725-1.584-3.067-3.404-2.999c-1.822,0.069-3.25,1.523-3.189,3.248C434.145,287.989,435.668,289.332,437.488,289.262z"
				/>
			<path stroke="#000000" stroke-miterlimit="10" d="M406.551,209.974c2.533,1.133,5.088,0.973,5.711-0.357
				c0.621-1.332-0.924-3.328-3.455-4.461c-2.527-1.133-5.084-0.974-5.707,0.358C402.475,206.844,404.02,208.841,406.551,209.974z"/>
			<path stroke="#000000" stroke-miterlimit="10" d="M430.289,252.242c0.01,0.315,0.41,0.555,0.891,0.538
				c0.482-0.019,0.863-0.289,0.854-0.604c-0.01-0.315-0.41-0.556-0.893-0.538C430.66,251.656,430.277,251.927,430.289,252.242z"/>
			<path stroke="#000000" stroke-miterlimit="10" d="M338.023,202.983c5.146-2.823,11.012-4.508,16.842-5.263
				c-24.078-1.956-39.707,16.837-40.834,39.413c-0.275,5.517,0.633,11.292,1.9,16.649c-0.002,0.004,1.75,0.556,1.691,0.472
				C309.148,234.54,319.398,213.201,338.023,202.983z"/>
			<path stroke="#000000" stroke-miterlimit="10" d="M380.723,275.07c2.125,0.963,4.803-0.27,5.98-2.753
				c0.973-2.052,0.613-4.313-0.738-5.582c-0.447,0.525-1.334,0.664-2.137,0.293c-0.57-0.264-0.963-0.724-1.098-1.209
				c-1.5,0.272-2.939,1.363-3.721,3.011C377.834,271.313,378.6,274.107,380.723,275.07z"/>
			<path stroke="#000000" stroke-miterlimit="10" d="M393.869,243.371c0.479-0.018,0.852-0.393,0.836-0.836
				c-0.016-0.443-0.414-0.788-0.891-0.77c-0.479,0.018-0.852,0.393-0.836,0.836C392.992,243.044,393.393,243.389,393.869,243.371z"
				/>
			<path stroke="#000000" stroke-miterlimit="10" d="M387.037,198.317c2.586-0.703,4.455-2.094,4.174-3.107
				c-0.281-1.014-2.607-1.266-5.191-0.563c-2.588,0.702-4.457,2.093-4.174,3.107C382.125,198.768,384.451,199.02,387.037,198.317z"
				/>
			<path stroke="#000000" stroke-miterlimit="10" d="M364.387,178.379c5.387-2.258,9.395-4.912,8.959-5.927
				c-0.438-1.015-5.16-0.008-10.543,2.25c-5.387,2.258-9.396,4.912-8.959,5.927C354.281,181.646,359.002,180.637,364.387,178.379z"
				/>
			<path stroke="#000000" stroke-miterlimit="10" d="M454.928,221.367c10.713,7.153,22.262,8.832,25.795,3.75
				c3.531-5.082-2.289-14.999-13-22.151c-10.713-7.152-22.264-8.832-25.795-3.75C438.395,204.296,444.215,214.214,454.928,221.367z
				 M475.945,212.976c0.055,0.109,0.105,0.219,0.158,0.328c2.725,2.697,5.008,9.171,1.029,11.331
				c1.309-3.976,0.73-7.706-1.029-11.331c-0.15-0.149-0.301-0.288-0.453-0.413L475.945,212.976z"/>
			<path stroke="#000000" stroke-miterlimit="10" d="M451.283,175.759c3.184,1.051,5.842,1.692,5.934,1.434
				c0.088-0.259-2.422-1.322-5.609-2.373c-3.186-1.051-5.842-1.693-5.932-1.434C445.586,173.646,448.094,174.708,451.283,175.759z"
				/>
			<path stroke="#000000" stroke-miterlimit="10" d="M464.037,254.143c0.061,1.752,0.979,3.139,2.049,3.099
				c1.07-0.04,1.891-1.494,1.83-3.246c-0.061-1.752-0.977-3.14-2.049-3.1S463.977,252.391,464.037,254.143z"/>
			<path stroke="#000000" stroke-miterlimit="10" d="M429.504,324.964c0.008,0.011,0.016,0.021,0.025,0.034
				c-0.008-0.013-0.014-0.023-0.02-0.034C429.508,324.823,429.506,324.823,429.504,324.964z"/>
			<path stroke="#000000" stroke-miterlimit="10" d="M295.354,291.518c-2.166,0.352-2.791,7.528-1.395,16.027
				c1.391,8.499,4.279,15.103,6.445,14.75c2.166-0.352,2.791-7.527,1.398-16.026C300.408,297.77,297.523,291.166,295.354,291.518z"
				/>
			<path stroke="#000000" stroke-miterlimit="10" d="M436.832,290.292c2.594,1.753,5.934,1.059,5.262-2.701
				C441.443,290.271,439.152,291.156,436.832,290.292z"/>
			<path stroke="#000000" stroke-miterlimit="10" d="M439.02,336.064l0.193-0.007c-3.193-3.396-7.049-6.821-9.684-11.059
				C431.662,329.387,434.953,332.733,439.02,336.064z"/>
			<path stroke="#000000" stroke-miterlimit="10" d="M435.852,289.82c0.324,0.193,0.654,0.349,0.98,0.472
				c-0.143-0.097-0.285-0.198-0.422-0.31L435.852,289.82z"/>
			<path stroke="#000000" stroke-miterlimit="10" d="M461.195,309.311l0.27,2.086c0.719-2.442,0.492-3.71,0.176-6.253
				c-1.111-8.934-7.775-16.356-13.766-22.563C453.334,290.148,459.824,300.297,461.195,309.311z"/>
			<path stroke="#000000" stroke-miterlimit="10" d="M482.824,286.95c-3.195,14.167-6.732,26.792-11.996,40.046
				c-0.74,1.864-1.492,3.692-2.232,5.519c-0.395-0.384-0.838-0.682-1.33-0.891c0.77-2.203,1.123-4.773,0.914-7.758
				c-0.234-3.383-1.889-6.98-3.57-9.675c-0.002-0.262-0.914-0.148-0.992-0.213c2.939,5.05,3.635,10.452,1.186,15.887
				c-0.279,0.618-0.607,1.201-0.963,1.762c-2.059,0.746-4.139,2.698-5.74,5.418c-2.508,1.464-5.289,2.332-7.84,2.56
				c-2.9,0.262-6.045-0.477-8.809-1.474c1.82,2.414,4.152,4.075,6.746,4.741c2.623-0.017,5.346-0.383,7.91-1.188
				c-1.531,5.274-0.693,10.207,1.949,12.029c-2.385,2.792-4.611,5.668-7.695,7.66c0.006,0,0.01-0.004,0.014-0.005
				c3.795-2.355,8.684-3.545,11.195-7.061c3.098-0.736,6.373-4.327,8.074-9.269c0.145-0.421,0.27-0.84,0.383-1.257
				c4.709-0.844,17.264-10.182,18.932-14.598c-4.186,4.75-10.223,8.18-16.613,9.513c9.746-18.803,14.949-60.848,15.502-77.108
				c0.039-1.109-0.371-2.394-0.947-3.594C487.254,267.923,485.063,277.027,482.824,286.95z"/>
			<path stroke="#000000" stroke-miterlimit="10" d="M448.625,342.97c-0.141-0.03-0.287-0.061-0.428-0.097
				c-0.193,0.001-0.387,0.004-0.58,0.001L448.625,342.97z"/>
			<path stroke="#000000" stroke-miterlimit="10" d="M448.625,342.97c0.775,0.164,1.568,0.245,2.379,0.226L448.625,342.97z"/>
			<path stroke="#000000" stroke-miterlimit="10" d="M423.367,380.232c-5.961-0.633-11.066,1.229-11.404,4.156
				c-0.334,2.929,4.227,5.816,10.189,6.446c5.963,0.633,11.068-1.228,11.402-4.156C433.893,383.751,429.33,380.865,423.367,380.232z
				"/>
			<path stroke="#000000" stroke-miterlimit="10" d="M428.604,375.538c5.633,0.639,15.531-6.578,19.182-10.458l-0.566,0.402
				C439.705,367.974,435.605,373.03,428.604,375.538z"/>
			<path stroke="#000000" stroke-miterlimit="10" d="M450.361,361.374c-0.15,0.035-0.273,0.111-0.363,0.236
				C450.123,361.535,450.24,361.452,450.361,361.374z"/>
			<path stroke="#000000" stroke-miterlimit="10" d="M499.293,252.804c-0.291-0.005-0.58-0.012-0.877-0.013
				C498.557,252.863,498.934,252.842,499.293,252.804z"/>
			<path stroke="#000000" stroke-miterlimit="10" d="M299.529,342.532c-2.191,5.72-1.861,9.972,0.082,13.838l18.189,17.287
				c0.539,0.351,1.1,0.711,1.67,1.077C312.396,364.248,311.971,350.214,299.529,342.532z"/>
			<path stroke="#000000" stroke-miterlimit="10" d="M365.623,380.891c0.037,0.142,0.615,0.448,1.078,0.695
				c-0.029-0.028-0.061-0.057-0.09-0.085C366.309,381.25,365.979,381.049,365.623,380.891z"/>
			<path stroke="#000000" stroke-miterlimit="10" d="M366.701,381.586c0.189,0.181,0.383,0.353,0.57,0.529
				c-0.008-0.077-0.012-0.144-0.01-0.196C367.205,381.859,366.975,381.733,366.701,381.586z"/>
			<path stroke="#000000" stroke-miterlimit="10" d="M538.629,282.904c-2.455-71.103-64.342-126.478-138.229-123.684
				c-73.885,2.794-131.789,62.698-129.334,133.8c1.934,55.985,40.719,102.211,93.188,117.976c-1.314,0.068-2.135,0.313-2.24,0.752
				c-0.293,1.23,5.047,3.492,11.93,5.054c6.883,1.561,12.701,1.83,12.994,0.602c0.123-0.51-0.734-1.199-2.258-1.941
				c8.006,1.121,16.232,1.559,24.615,1.242c17.535-0.664,34.164-4.548,49.307-11.031c0.607,0.682,1.607,0.938,2.498,0.557
				l12.568-5.354c1.107-0.472,1.619-1.733,1.145-2.819c-0.076-0.175-0.18-0.326-0.295-0.47c13.197-7.833,24.871-17.784,34.52-29.344
				c0.158,0.336,0.418,0.63,0.773,0.826c0.904,0.508,2.061,0.194,2.58-0.697l14.34-24.595c0.461-0.791,0.266-1.769-0.416-2.334
				C534.869,323.668,539.35,303.77,538.629,282.904z M343.695,400.108c-6.387-3.077-13.832-7.613-18.688-12.689l0.389-0.014
				c1.734,0.773,3.324,1.694,4.961,2.675c5.061,3.037,13.926,6.966,17.264,11.618C345.852,401.532,345.23,400.846,343.695,400.108z
				 M378.574,395.082c-0.244,0.469-2.67-0.243-5.424-1.596c-2.752-1.35-4.789-2.827-4.547-3.299c0.24-0.471,2.668,0.243,5.42,1.594
				C376.777,393.132,378.813,394.609,378.574,395.082z M465.125,400.18c-7.379,3.183-17.27,5.169-25.209,6.41
				c-5.977,0.934-13.625,0.365-19.625-0.932c-0.127,0.029-0.256,0.055-0.385,0.086l0.154-0.133c0.074,0.018,0.154,0.031,0.23,0.047
				c3.74-0.824,7.666-0.357,11.467-0.35c7.58,0.016,14.764-1.038,21.984-3.327c6.287-1.996,13.951-6.837,20.33-7.024
				C471.5,397.628,468.473,398.735,465.125,400.18z M481.992,368.784c-0.859-0.974,1.195-4.105,4.59-6.994
				c3.393-2.89,6.84-4.442,7.699-3.47c0.857,0.974-1.195,4.106-4.588,6.994C486.299,368.204,482.852,369.758,481.992,368.784z
				 M485.439,374.263l-0.311-0.561c7.139-2.975,12.396-7.514,14.941-14.325C499.189,367.061,494.424,374.923,485.439,374.263z
				 M499.559,351.2c-5.334-2.577-13.15-0.919-19.154,4.525c-7.162,6.497-9.061,15.947-4.336,21.272
				c-32.676,27.386-74.539,37.227-108.797,5.118c0.113,1.039,1.102,4.268,1.232,5.526c-2.043,2.03-4.521,1.491-5.033,5.902
				c-0.795,6.822-28.166-8.677-44-18.809c0.373,0.55,0.76,1.091,1.17,1.621l-2.84-2.698c-4.711-3.061-8.141-5.489-9.09-6.419
				c-3.977-3.889-7.262-7.206-9.1-10.868l-2.502-2.375c-10.871-14.277-19.85-32.135-19.975-48.476
				c-0.072-9.454,12.934-50.64,32.291-37.696c-27.865-18.633-17.389-41.699,0.492-61.871
				c29.826-33.645,73.406-48.229,114.064-42.281c-2.811-0.481-5.65-0.881-8.521-1.172c24.59,1.818,48.555,10.986,68.295,27.829
				c9.104,7.767,16.965,17.018,23.408,27.02c-5.959,5.249-4.824,11.53,4.15,14.378c-0.088,0.492-4.875,1.602-4.268,4.062
				c1.695,0.6,4.432-0.161,6.244-0.045c6.1,9.585,9.563,20.28,10.891,31.421c1.299,3.307,1.951,7.059,2.08,11.119l2.107,3.675
				c-0.666-1.075-1.373-2.138-2.098-3.196C526.746,301.42,511.152,333.377,499.559,351.2z"/>
			<path stroke="#000000" stroke-miterlimit="10" d="M499.293,252.804c0.291,0.006,0.578,0.013,0.863,0.023
				c-0.053-0.036-0.102-0.073-0.152-0.108C499.893,252.729,499.6,252.772,499.293,252.804z"/>
			<path stroke="#000000" stroke-miterlimit="10" d="M500.156,252.828c10.074,6.933,19.318,16.021,26.115,25.934
				c-0.004-0.16-0.006-0.321-0.01-0.479l-1.463-2.554c-0.072-2.877-0.279-5.735-0.617-8.565
				C520.908,258.814,513.525,253.302,500.156,252.828z"/>
			<path stroke="#000000" stroke-miterlimit="10" d="M516.268,289.15c-1.623-0.221-3.391,2.733-3.953,6.596
				c-0.561,3.862,0.301,7.171,1.922,7.39c1.621,0.22,3.391-2.733,3.949-6.596C518.746,292.678,517.887,289.37,516.268,289.15z"/>
			<path stroke="#000000" stroke-miterlimit="10" d="M484.457,254.301c-0.123-0.016-0.127-0.013-0.012,0.012
				c0.699,0.729,1.713,2.138,2.455,3.683c-0.025-0.682-0.059-1.367-0.109-2.056C486.078,255.336,485.232,254.926,484.457,254.301z"
				/>
			<path stroke="#000000" stroke-miterlimit="10" d="M516.725,280.837c0.965-0.036,1.701-1.344,1.646-2.921
				c-0.055-1.576-0.881-2.825-1.844-2.789s-1.701,1.344-1.646,2.921S515.762,280.874,516.725,280.837z"/>
			<path stroke="#000000" stroke-miterlimit="10" d="M348.529,362.456c-1.945,0.603-2.813,3.319-1.939,6.067
				c0.871,2.748,3.152,4.489,5.098,3.886c1.943-0.603,2.813-3.319,1.939-6.067C352.756,363.594,350.473,361.854,348.529,362.456z"/>
			<path stroke="#000000" stroke-miterlimit="10" d="M346.539,370.907c0.119,0.412,0.301,0.84,0.541,1.185
				c1.025,1.476,2.861,1.91,4.533,1.477c-0.082,0.008-0.168,0.006-0.264-0.006C348.912,373.206,347.973,372.848,346.539,370.907z"/>
			<path stroke="#000000" stroke-miterlimit="10" d="M352.297,373.34c-0.223,0.092-0.451,0.167-0.684,0.228
				C351.855,373.544,352.055,373.438,352.297,373.34z"/>
			<path stroke="#000000" stroke-miterlimit="10" d="M346.387,370.699c0.053,0.074,0.102,0.14,0.152,0.208
				c-0.014-0.046-0.031-0.094-0.041-0.141L346.387,370.699z"/>
			<path stroke="#000000" stroke-miterlimit="10" d="M405.793,331.397c-5.836-11.566-16.998-17.793-24.93-13.909
				c-7.93,3.884-9.629,16.409-3.793,27.974c5.172,10.25,14.229,16.707,24.979,14.118c1.475-0.356,2.984-0.881,4.52-1.592
				c-1.104,0.005-2.219,0.002-3.332-0.029c-6.998,3.61-18.242-3.484-20.801-10.057c-0.465-1.196-0.635-2.672-0.846-3.979
				c-0.023-0.053-0.045-0.104-0.064-0.155c-0.018-0.08,0.018-0.182-0.006-0.261c0.023,0.137,0.045,0.276,0.07,0.416
				c1.357,3.5,3.133,6.867,6.09,9.314c3.277,2.713,7.426,3.884,11.605,4.436c1.303,0.172,2.629,0.25,3.951,0.286
				c0.258-0.132,0.508-0.273,0.75-0.434C411.775,352.381,409.266,338.278,405.793,331.397z"/>
			<path stroke="#000000" stroke-miterlimit="10" d="M336.021,276.503c-2.313,0.087-4.111,2.275-4.023,4.887
				c0.092,2.611,2.039,4.657,4.35,4.569c2.311-0.087,4.111-2.275,4.021-4.886C340.277,278.463,338.332,276.417,336.021,276.503z"/>
			<path stroke="#000000" stroke-miterlimit="10" d="M370.729,341.713c-1.424-2.524-2.004-6.241-2.637-9.154
				c-0.307,1.27-0.242,2.83-0.383,4.302l0.283-1.135c1.242,12.336,6.697,20.233,14.256,27.417c1.418,1.348,5.703,1.126,7.422,0.897
				C379.16,362.873,375.738,350.581,370.729,341.713z"/>
			<path stroke="#000000" stroke-miterlimit="10" d="M370.779,246.249c7.49-11.202,7.986-24.522,2.174-33.446
				c-0.002,0.003-0.002,0.004-0.006,0.006c-1.18,0.914-3.424,0.05-5.01-1.93c-1.217-1.516-1.691-3.244-1.316-4.383l-0.002,0
				c-11.879-7.625-29.275-2.189-38.857,12.14s-7.721,32.127,4.158,39.752c0.035,0.022,0.07,0.041,0.105,0.063
				c0.004-0.109,0.025-0.214,0.068-0.313c0.373-0.875,2.117-0.995,3.895-0.268s2.916,2.025,2.541,2.899
				c-0.061,0.138-0.162,0.25-0.285,0.35C349.371,263.952,362.791,258.195,370.779,246.249z M356.785,213.241
				c-0.014,0-0.027,0-0.037,0c-11.098,3.896-20.889,11.882-25.195,23.025c-1.166,3.015-1.848,5.615-1.955,8.873l-0.75-4.831
				c0.111-12.942,4.75-20.792,16.484-26.016c2.988-1.331,8.186-1.203,11.416-1.051c0.01-0.005,0.021-0.01,0.037-0.015
				C356.996,213.223,356.996,213.229,356.785,213.241z M358.797,252.941l-0.035-0.299c0.711-1.335,1.703-2.012,2.273-3.604
				c0.125,0.085,1.086,0.288,1.229,0.255C362.307,251.56,361.115,252.878,358.797,252.941z"/>
			<path stroke="#000000" stroke-miterlimit="10" d="M384.988,266.076c0.367,0.167,0.693,0.393,0.977,0.659
				c0.066-0.077,0.125-0.163,0.17-0.256c0.354-0.729-0.107-1.666-1.027-2.092c-0.924-0.426-1.957-0.18-2.309,0.549
				c-0.135,0.278-0.148,0.585-0.068,0.883C383.494,265.681,384.271,265.751,384.988,266.076z"/>
		</g>
		<g>
			<g>
				<g>
					<path d="M416.179,403.715c0,0,0.199,0.146,0.512,0.424c0.291,0.278,0.79,0.683,1.282,1.205c0.518,0.52,1.081,1.16,1.678,1.885
						c0.608,0.703,1.226,1.486,1.831,2.33c0.588,0.82,1.176,1.793,1.716,2.828c0.524,1.029,1.024,2.121,1.416,3.324
						c0.425,1.191,0.771,2.398,0.98,3.74c0.208,1.334,0.396,2.633,0.38,4.078c-0.021,1.432-0.027,2.787-0.316,4.27
						c-0.123,0.725-0.277,1.438-0.438,2.137c-0.092,0.352-0.172,0.689-0.277,1.041c-0.117,0.357-0.268,0.709-0.4,1.057
						c-0.281,0.691-0.516,1.371-0.846,2.008c-0.155,0.318-0.309,0.633-0.46,0.945l-0.015,0.027l-0.007,0.016
						c-0.028,0.117,0.056-0.246-0.067,0.27l-0.029,0.045l-0.062,0.09l-0.12,0.18l-0.267,0.352c-0.366,0.459-0.685,0.916-1.062,1.34
						c-0.168,0.18-0.426,0.52-0.637,0.771c-0.223,0.27-0.43,0.531-0.666,0.771c-0.469,0.48-0.867,0.945-1.33,1.324
						c-0.487,0.359-0.913,0.701-1.367,0.98c-0.45,0.281-0.843,0.543-1.252,0.748c-0.414,0.203-0.816,0.367-1.189,0.496
						c-0.719,0.275-1.359,0.396-1.749,0.5c-0.407,0.092-0.646,0.113-0.646,0.113l-0.811-0.586c0,0,0.298-0.531,0.819-1.459
						c0.126-0.232,0.283-0.48,0.421-0.768c0.121-0.295,0.252-0.615,0.392-0.957c0.14-0.34,0.288-0.701,0.444-1.082
						c0.124-0.391,0.254-0.801,0.39-1.229c0.127-0.434,0.29-0.855,0.403-1.344c0.109-0.492,0.223-1.002,0.34-1.525
						c0.053-0.248,0.129-0.559,0.164-0.764c0.034-0.266,0.068-0.535,0.104-0.807c0.064-0.545,0.154-1.096,0.236-1.658
						c0.22-1.115,0.184-2.316,0.279-3.512c0.105-1.195,0.018-2.432,0.022-3.658c0.032-1.227-0.063-2.465-0.099-3.68
						c-0.035-1.213-0.135-2.416-0.21-3.576c-0.138-2.336-0.267-4.515-0.378-6.384c-0.117-1.885-0.106-3.451-0.105-4.541
						c-0.003-1.091-0.004-1.716-0.004-1.716L416.179,403.715z"/>
				</g>
				<g>
					<path d="M470.028,383.646c0,0,0.349,0.57,0.943,1.655c0.57,1.091,1.501,2.667,2.494,4.723c0.984,2.068,2.188,4.625,3.398,7.588
						c0.627,1.427,1.295,2.946,1.998,4.546c0.371,0.787,0.662,1.641,1.049,2.443c0.381,0.801,0.77,1.619,1.167,2.455
						c0.404,0.832,0.772,1.689,1.167,2.553c0.197,0.416,0.389,0.908,0.594,1.271c0.229,0.459,0.462,0.922,0.695,1.389
						c0.482,0.898,0.881,1.716,1.368,2.607c0.47,0.887,0.964,1.762,1.476,2.629c2.01,3.488,4.338,6.83,6.966,9.58
						c1.337,1.355,2.724,2.559,4.2,3.564c0.366,0.254,0.731,0.51,1.123,0.713c0.391,0.203,0.746,0.473,1.156,0.637l0.586,0.297
						l0.291,0.15l0.145,0.078l0.037,0.018c0.38,0.184-0.48-0.229-0.369-0.178l0.108,0.045l1.747,0.723l1.754,0.725l1.324,0.363
						c0.436,0.127,0.873,0.246,1.303,0.393c0.488,0.146,1.088,0.291,1.628,0.439l1.663,0.441c0.555,0.148,1.188,0.281,1.777,0.424
						l3.695,0.863c5.068,1.283,10.72,2.723,16.445,5.826l1.645,0.93l0.82,0.463c0.271,0.15,0.535,0.297,0.869,0.527
						c1.256,0.838,2.506,1.672,3.748,2.502c1.125,0.879,2.242,1.752,3.352,2.617c1.09,0.895,2.082,1.92,3.102,2.865
						c3.994,3.932,7.191,8.473,9.455,13.09c0.512,1.178,1.016,2.338,1.514,3.482l0.09,0.213l0.023,0.053
						c0.252,0.553,0.078,0.182,0.139,0.316l0.029,0.096l0.119,0.385l0.234,0.762c0.15,0.51,0.299,1.016,0.447,1.516l0.216,0.75
						l0.213,0.9c0.136,0.6,0.271,1.193,0.404,1.783c0.126,0.582,0.25,1.16,0.372,1.732c0.069,0.541,0.137,1.076,0.205,1.605
						c0.289,2.119,0.406,4.105,0.453,5.996c-0.016,1.877-0.031,3.645-0.131,5.275c-0.131,3.264-0.545,6.059-0.852,8.336
						c-0.274,2.277-0.682,4.084-0.881,5.289c-0.229,1.217-0.383,1.867-0.383,1.867l-0.998,0.055c0,0-0.181-2.555-0.497-7.027
						c-0.175-2.234-0.397-4.941-0.778-8.025c-0.404-3.076-0.912-6.545-1.905-10.205c-0.118-0.459-0.238-0.924-0.358-1.393
						c-0.152-0.453-0.306-0.91-0.461-1.373c-0.339-0.92-0.561-1.867-1.018-2.816c-0.415-0.928-0.827-1.965-1.264-2.85
						c-0.509-0.918-1.025-1.852-1.549-2.795c-2.245-3.689-5.176-7.236-8.725-10.352c-0.916-0.746-1.801-1.545-2.762-2.264
						c-0.979-0.693-1.965-1.395-2.957-2.098c-1.034-0.629-2.074-1.262-3.119-1.896c-1.071-0.611-2.213-1.168-3.324-1.76
						c-4.391-2.191-9.315-3.496-14.287-4.662c-2.481-0.625-4.994-1.188-7.476-1.924c-0.622-0.18-1.242-0.338-1.862-0.535
						l-1.859-0.646l-1.849-0.65l-1.728-0.783c-4.793-2.006-8.852-5.422-11.939-9.223c-3.09-3.836-5.346-8.031-7.127-12.105
						c-0.904-2.035-1.662-4.066-2.375-6.031c-0.723-1.935-1.236-3.917-1.801-5.761c-1.195-3.695-1.845-7.169-2.596-10.214
						c-0.68-3.043-1.273-5.695-1.762-7.88c-1.098-4.352-1.725-6.838-1.725-6.838L470.028,383.646z"/>
				</g>
				<g>
					<path d="M416.331,433.085c0,0,0.088,0.221,0.199,0.602c0.094,0.371,0.291,0.951,0.424,1.613
						c0.076,0.348,0.154,0.691,0.197,1.104c0.022,0.436-0.018,0.883-0.047,1.396c-0.031,0.512-0.128,1.033-0.221,1.617
						c-0.101,0.551-0.255,1.047-0.407,1.625c-0.167,0.555-0.37,1.139-0.608,1.705c-0.245,0.559-0.551,1.1-0.854,1.686
						c-0.303,0.6-0.694,1.086-1.073,1.637c-0.373,0.547-0.83,1.064-1.27,1.557c-0.894,0.988-1.913,1.918-2.985,2.678
						c-1.085,0.814-2.2,1.422-3.354,2.008c-1.141,0.527-2.316,0.982-3.457,1.295c-1.166,0.34-2.268,0.539-3.41,0.646
						c-1.08,0.119-2.205,0.141-3.223,0.096c-1.042-0.051-2.051-0.172-2.987-0.332c-0.959-0.176-1.846-0.377-2.663-0.602
						c-0.826-0.23-1.573-0.469-2.205-0.688c-0.626-0.203-1.18-0.457-1.537-0.586c-0.367-0.146-0.58-0.252-0.58-0.252l-0.467-0.885
						c0,0,0.492-0.281,1.353-0.771c0.429-0.254,0.958-0.537,1.569-0.855c0.609-0.326,1.299-0.688,2.069-1.035
						c1.534-0.717,3.321-1.539,5.254-2.361c1.925-0.824,3.971-1.707,5.952-2.682c0.986-0.49,1.996-0.945,2.928-1.484
						c0.958-0.504,1.85-1.07,2.713-1.619c0.439-0.264,0.817-0.592,1.229-0.859c0.402-0.281,0.807-0.547,1.154-0.854
						c0.727-0.584,1.411-1.143,1.969-1.734c0.289-0.285,0.566-0.559,0.83-0.818c0.242-0.273,0.471-0.533,0.686-0.777
						c0.218-0.244,0.422-0.475,0.609-0.688c0.182-0.227,0.332-0.459,0.477-0.654c0.568-0.803,0.893-1.26,0.893-1.26L416.331,433.085
						z"/>
				</g>
				<g>
					<path d="M324.188,521.917c0,0,0.007-0.463,0.074-1.305c0.087-0.834,0.149-2.086,0.357-3.619
						c0.172-1.547,0.291-3.352,0.535-5.359c0.106-1.025,0.219-2.115,0.338-3.266c0.117-1.148,0.307-2.318,0.42-3.592
						c0.303-2.496,0.659-5.199,1.086-8.068c0.453-2.875,0.956-5.9,1.648-9.068c0.295-1.58,0.719-3.184,1.138-4.822
						c0.208-0.816,0.417-1.639,0.628-2.465c0.262-0.832,0.525-1.668,0.789-2.508l0.193-0.605l0.244-0.686l0.492-1.373
						c0.314-0.938,0.699-1.801,1.084-2.67c0.368-0.875,0.77-1.748,1.211-2.619c0.43-0.871,0.844-1.748,1.352-2.605
						c1.969-3.412,4.337-6.775,7.245-9.662c0.745-0.707,1.45-1.441,2.226-2.102c0.801-0.639,1.586-1.281,2.39-1.887
						c0.832-0.568,1.659-1.133,2.481-1.693c0.848-0.516,1.727-0.965,2.575-1.434c3.456-1.781,6.993-2.877,10.304-3.549
						c0.829-0.131,1.647-0.262,2.453-0.391l0.301-0.045l0.148-0.023l0.074-0.012c-0.16,0.043,0.261-0.064,0.229-0.053l0.032-0.002
						l0.527-0.039c0.35-0.031,0.701-0.039,1.047-0.057c0.348-0.016,0.691-0.031,1.031-0.047c0.393-0.01,0.78-0.021,1.165-0.031
						c0.79-0.014,1.556-0.035,2.306-0.016c2.838,0.156,5.355,0.482,7.53,0.973c2.181,0.436,4.019,1.061,5.513,1.549
						c1.497,0.461,2.644,1.008,3.424,1.32c0.781,0.334,1.191,0.545,1.191,0.545l-0.057,0.998c0,0-0.42-0.014-1.208-0.037
						c-0.788-0.029-1.942-0.061-3.41-0.063c-0.734-0.014-1.546,0.002-2.429,0.021c-0.885,0.008-1.838,0.047-2.854,0.109
						c-2.036,0.094-4.315,0.354-6.786,0.688c-2.419,0.406-5.114,0.992-7.791,1.908c-2.682,0.939-5.428,2.164-8.044,3.803
						c-2.623,1.627-5.075,3.703-7.246,6.104c-2.175,2.4-4.058,5.133-5.658,8.027c-1.638,2.879-3.009,5.914-4.187,8.969
						c-0.287,0.773-0.572,1.543-0.855,2.311c-0.264,0.775-0.526,1.549-0.787,2.316c-0.525,1.533-1.039,3.051-1.516,4.557
						c-0.964,3.01-1.896,5.922-2.779,8.682c-0.449,1.381-0.885,2.723-1.307,4.023c-0.444,1.293-0.874,2.545-1.286,3.744
						c-0.821,2.402-1.693,4.566-2.464,6.484c-0.836,1.896-1.521,3.576-2.162,4.908c-1.307,2.646-2.053,4.16-2.053,4.16
						L324.188,521.917z"/>
				</g>
				<g>
					<path d="M389.532,455.626c0.188-0.33,0.377-0.602,0.564-0.881c0.188-0.287,0.376-0.557,0.564-0.797
						c0.375-0.498,0.75-0.959,1.126-1.367c0.438-0.408,1.005-0.684,1.56-1.002c0.561-0.258,1.162-0.541,1.779-0.73
						c0.553-0.172,1.064-0.359,1.602-0.457c0.533-0.111,1.086-0.242,1.623-0.285c0.499-0.035,1.006-0.1,1.5-0.088
						c0.498-0.008,0.994,0.02,1.482,0.057c0.443,0.041,0.879,0.105,1.312,0.182c0.425,0.086,0.867,0.17,1.271,0.289
						c0.746,0.191,1.47,0.473,2.152,0.785c0.613,0.266,1.195,0.627,1.754,1.012c0.246,0.172,0.489,0.357,0.727,0.566
						c0.236,0.211,0.475,0.428,0.703,0.682l5.143,5.514c-0.057,0.27-0.146,0.545-0.233,0.848l-0.257,1.068
						c-0.094,0.406-0.212,0.82-0.315,1.234c-0.12,0.455-0.271,0.916-0.407,1.369c-0.188,0.498-0.34,0.982-0.566,1.475
						c-0.223,0.514-0.466,1.031-0.764,1.529c-0.299,0.521-0.646,1.039-1.05,1.518c-0.194,0.244-0.446,0.494-0.691,0.723
						c-0.242,0.229-0.485,0.445-0.782,0.648l-0.998,0.049l-0.188-1.008l-0.276-0.996c-0.219-0.658-0.464-1.313-0.7-1.977
						l-0.774-2.002c-0.269-0.674-0.514-1.369-0.723-2.09l0.593,0.635l-2.156-0.797l-2.098-0.873
						c-0.686-0.301-1.358-0.623-2.038-0.934l-2.025-0.887c-0.681-0.256-1.362-0.506-2.035-0.785
						c-0.685-0.207-1.374-0.434-2.063-0.633l-1.027-0.193c-0.345-0.074-0.682-0.17-1.042-0.229l-2.245-0.172L389.532,455.626z"/>
				</g>
				<g>
					<path d="M421.733,468.654c0,0-0.086-0.303-0.189-0.85c-0.05-0.271-0.111-0.607-0.183-1.004c-0.065-0.406-0.07-0.9-0.073-1.455
						c-0.02-0.578,0.044-1.16,0.111-1.82c0.041-0.676,0.219-1.357,0.395-2.127c0.164-0.777,0.494-1.535,0.811-2.391
						c0.367-0.816,0.808-1.67,1.35-2.521c1.084-1.693,2.564-3.383,4.352-4.848c1.789-1.457,3.852-2.707,6.016-3.654
						c0.538-0.232,1.076-0.48,1.637-0.682c0.551-0.189,1.106-0.379,1.665-0.568c0.555-0.17,1.112-0.34,1.673-0.512
						c0.559-0.129,1.121-0.258,1.684-0.387c2.237-0.523,4.469-0.746,6.621-0.939c2.16-0.1,4.248-0.16,6.244-0.051
						c0.996,0.016,1.973,0.096,2.919,0.184c0.947,0.076,1.869,0.148,2.761,0.277c0.895,0.121,1.76,0.191,2.592,0.34l0.625,0.098
						l0.691,0.088c0.449,0.053,0.895,0.113,1.335,0.197c1.759,0.285,3.429,0.635,4.976,1.018c3.094,0.773,5.701,1.723,7.537,2.521
						c0.918,0.381,1.648,0.791,2.142,1.021c0.495,0.25,0.763,0.416,0.763,0.416l0.092,0.996c0,0-0.996,0.123-2.74,0.338
						c-1.744,0.203-4.232,0.543-7.227,0.865c-1.496,0.164-3.117,0.34-4.832,0.529c-1.705,0.188-3.539,0.4-5.432,0.506
						c-3.781,0.244-7.793,0.338-11.763,0.631c-3.968,0.248-7.913,0.705-11.431,1.721c-1.754,0.512-3.404,1.129-4.878,1.889
						c-1.475,0.758-2.765,1.654-3.85,2.604c-1.093,0.943-1.969,1.945-2.681,2.885c-0.707,0.941-1.25,1.84-1.638,2.584
						c-0.401,0.734-0.679,1.365-0.857,1.807c-0.187,0.432-0.284,0.662-0.284,0.662L421.733,468.654z"/>
				</g>
				<g>
					<path d="M556.935,504.976c0,0,0.209,0.33,0.539,0.955c0.305,0.633,0.853,1.523,1.348,2.727c0.258,0.613,0.5,1.305,0.773,2.068
						c0.297,0.773,0.521,1.6,0.77,2.469c0.25,0.875,0.483,1.822,0.705,2.813c0.213,0.99,0.382,2.033,0.586,3.133
						c0.164,1.086,0.28,2.217,0.429,3.396c0.124,1.172,0.173,2.367,0.267,3.609c0.107,2.461,0.14,5.027,0.048,7.631
						c-0.01,1.293-0.111,2.607-0.183,3.916c-0.037,0.652-0.073,1.307-0.109,1.967c-0.058,0.65-0.114,1.303-0.172,1.959
						c-0.12,1.303-0.191,2.623-0.342,3.902c-0.15,1.297-0.254,2.578-0.365,3.85c-0.316,2.543-0.476,5.02-0.748,7.443
						c-0.04,0.598-0.064,1.193-0.118,1.789l-0.093,0.891l-0.023,0.223l-0.012,0.111l-0.006,0.055c0.006,0.189-0.01-0.225-0.009-0.17
						l-0.001,0.029l-0.021,0.498c-0.053,1.324-0.104,2.631-0.223,3.92c-0.176,2.574-0.46,5.07-0.779,7.438
						c-0.33,2.371-0.738,4.619-1.072,6.65c-0.729,4.092-1.641,7.553-2.413,9.998c-0.366,1.223-0.766,2.193-0.988,2.854
						c-0.244,0.662-0.405,1.02-0.406,1.02l-0.996,0.084c0,0-0.14-1.363-0.384-3.748c-0.229-2.387-0.628-5.791-0.977-9.889
						c-0.207-2.047-0.316-4.266-0.448-6.613c-0.134-2.348-0.273-4.822-0.419-7.383c-0.072-1.279-0.146-2.582-0.221-3.898
						c-0.064-1.365-0.036-2.695-0.059-4.064c0.068-2.719,0.201-5.48,0.469-8.223c0.279-2.742,0.668-5.463,1.068-8.135
						c0.421-2.662,0.835-5.283,1.236-7.818c0.406-2.529,0.783-4.975,1.111-7.293c0.324-2.318,0.576-4.516,0.787-6.543
						c0.161-2.031,0.34-3.891,0.418-5.543c0.131-1.654,0.087-3.08,0.131-4.268c-0.002-1.189-0.055-2.135-0.066-2.773
						c-0.02-0.641-0.029-0.982-0.029-0.982L556.935,504.976z"/>
				</g>
				<g>
					<path d="M325.621,521.156c0,0,0.036,0.332,0.049,0.928c-0.005,0.586,0.05,1.479-0.005,2.547
						c-0.033,1.08-0.128,2.363-0.286,3.807c-0.161,1.441-0.403,3.037-0.726,4.744c-0.164,0.855-0.355,1.721-0.576,2.631
						c-0.247,0.906-0.556,1.816-0.846,2.77c-0.627,1.879-1.34,3.846-2.181,5.828c-0.392,1.01-0.866,1.992-1.327,2.998
						c-0.23,0.498-0.463,0.998-0.695,1.502c-0.246,0.475-0.495,0.953-0.744,1.432c-0.963,1.939-2.093,3.814-3.197,5.705
						c-0.592,0.922-1.186,1.842-1.776,2.76c-0.284,0.463-0.604,0.912-0.911,1.352l-0.885,1.318
						c-0.572,0.885-1.193,1.732-1.819,2.563c-0.616,0.838-1.224,1.666-1.884,2.449c-1.246,1.588-2.631,3.107-3.854,4.469
						c-1.281,1.467-2.564,2.814-3.801,4.031c-2.481,2.43-4.82,4.311-6.576,5.564c-0.859,0.637-1.635,1.084-2.12,1.412
						c-0.503,0.318-0.8,0.473-0.8,0.473l-0.885-0.469c0,0,0.49-0.988,1.347-2.719c0.866-1.725,2.06-4.213,3.569-7.156
						c0.752-1.475,1.566-3.07,2.428-4.76c0.879-1.695,1.873-3.43,2.895-5.236c1.023-1.805,2.08-3.67,3.154-5.564
						c1.051-1.912,2.239-3.768,3.369-5.666c2.319-3.756,4.66-7.508,6.79-11.025c1.085-1.752,2.134-3.445,3.128-5.053
						c0.5-0.801,0.987-1.582,1.459-2.336c0.461-0.762,0.871-1.52,1.284-2.236c1.626-2.881,3.049-5.246,4.013-6.92
						c0.975-1.666,1.53-2.619,1.53-2.619L325.621,521.156z"/>
				</g>
				<g>
					<path d="M365.749,489.605c0,0,0.295,0.43,0.789,1.248c0.232,0.426,0.572,0.875,0.857,1.566c0.301,0.658,0.68,1.475,0.975,2.375
						c0.59,1.777,1.19,4.066,1.409,6.699c0.255,2.631,0.238,5.635-0.056,8.756c-0.295,3.121-0.822,6.389-1.373,9.643
						c-0.561,3.248-1.107,6.504-1.388,9.564l-0.008,0.072l-0.004,0.037c0.014-0.07-0.035,0.211,0.029-0.15l-0.013,0.17l-0.023,0.344
						l-0.049,0.686c-0.028,0.461-0.072,0.92-0.119,1.379c-0.088,0.92-0.178,1.848-0.269,2.781c-0.081,0.92-0.212,1.912-0.216,2.74
						c-0.059,0.859-0.115,1.723-0.174,2.588c-0.061,0.865-0.121,1.732-0.182,2.602c-0.038,0.895-0.076,1.791-0.114,2.689
						c-0.063,1.805-0.233,3.605-0.196,5.424c-0.033,1.816-0.133,3.625-0.119,5.443c0.055,1.82-0.016,3.637-0.02,5.441
						c0.063,1.816,0.084,3.627,0.077,5.418c-0.009,0.895,0.021,1.791,0.059,2.686c0.036,0.893,0.025,1.783,0.04,2.666
						c0.01,0.883,0.02,1.76,0.028,2.629c0.04,0.873,0.048,1.744,0.054,2.605c0.01,0.863,0.019,1.717,0.027,2.559
						c0.004,0.916,0.008,1.818,0.012,2.711c-0.113,3.383-0.201,6.488-0.561,9.594c-0.178,1.525-0.316,2.977-0.51,4.355
						c-0.197,1.365-0.349,2.588-0.555,3.783c-0.363,2.369-0.83,4.461-1.061,6.148c-0.238,1.697-0.58,3.07-0.742,4.002
						c-0.19,0.938-0.322,1.445-0.322,1.445l-0.99,0.148c0,0-0.253-1.93-0.696-5.311c-0.257-1.689-0.417-3.746-0.624-6.105
						c-0.213-2.365-0.442-5.012-0.645-7.895c-0.161-2.885-0.598-6.02-0.943-9.33c-0.383-3.27-0.967-6.777-1.314-10.4
						c-0.441-3.621-0.715-7.387-0.99-11.213c-0.07-1.92-0.142-3.854-0.213-5.795c-0.051-1.943,0.014-3.896,0.015-5.848
						c-0.013-1.955,0.212-3.9,0.317-5.842c0.073-0.969,0.113-1.938,0.215-2.902c0.114-0.965,0.229-1.926,0.342-2.883
						c0.379-3.863,1.092-7.5,1.697-11.135c0.721-3.631,1.769-7.021,2.777-10.203c1.016-3.182,1.994-6.162,2.756-8.943
						c0.764-2.779,1.299-5.354,1.604-7.654c0.339-2.303,0.307-4.328,0.244-5.986c-0.136-1.643-0.292-2.916-0.521-3.816
						c-0.189-0.889-0.291-1.361-0.291-1.361L365.749,489.605z"/>
				</g>
				<g>
					<path d="M513.692,509.722c0,0-0.201,0.584-0.627,1.637c-0.103,0.264-0.242,0.557-0.348,0.881
						c-0.07,0.314-0.146,0.658-0.229,1.029c-0.077,0.352-0.16,0.73-0.249,1.135c-0.08,0.408-0.132,0.891-0.203,1.363
						c-0.318,1.883-0.368,4.256-0.34,6.92c0.07,2.691,0.327,5.75,0.682,9.121c0.379,3.449,0.789,7.186,1.224,11.137
						c0.217,2.037,0.345,4.172,0.47,6.434c0.031,1.176,0.104,2.289,0.043,3.555c-0.02,0.625-0.04,1.254-0.061,1.883
						c-0.054,0.635-0.107,1.271-0.162,1.912c-0.043,0.549-0.088,1.1-0.133,1.652c-0.025,0.281-0.035,0.541-0.074,0.844l-0.164,0.986
						c-0.229,1.301-0.439,2.688-0.715,3.955c-0.29,1.24-0.582,2.49-0.877,3.746c-0.38,1.221-0.762,2.447-1.146,3.678
						c-1.603,4.889-3.8,9.525-6.101,13.916c-2.387,4.352-4.88,8.473-7.403,12.336c-1.234,1.955-2.482,3.826-3.708,5.668
						c-1.195,1.826-2.377,3.629-3.538,5.404c-0.56,0.881-1.114,1.756-1.664,2.621c-0.542,0.873-1.08,1.736-1.612,2.592
						c-0.557,0.904-1.107,1.797-1.65,2.68c-0.489,0.844-0.959,1.66-1.46,2.465c-0.483,0.813-0.997,1.594-1.44,2.408
						c-0.447,0.813-0.881,1.617-1.342,2.396c-0.955,1.559-1.675,3.117-2.48,4.598c-0.85,1.471-1.45,2.936-2.139,4.318
						c-0.331,0.693-0.685,1.369-0.978,2.035c-0.271,0.672-0.539,1.326-0.818,1.961c-1.144,2.535-1.948,4.828-2.671,6.75
						c-0.668,1.926-1.133,3.484-1.486,4.555c-0.348,1.07-0.565,1.652-0.565,1.652l-1-0.006c0,0,0.021-0.59,0.059-1.695
						c0.02-0.553,0.044-1.234,0.071-2.035c0.041-0.801,0.02-1.729,0.171-2.752c0.248-2.049,0.446-4.559,1.067-7.371
						c0.136-0.709,0.275-1.438,0.42-2.189c0.163-0.746,0.384-1.502,0.582-2.285c0.414-1.561,0.824-3.211,1.428-4.875
						c0.57-1.676,1.117-3.439,1.854-5.197c0.692-1.777,1.41-3.613,2.265-5.453c0.414-0.926,0.832-1.865,1.256-2.814
						c0.451-0.93,0.908-1.869,1.37-2.818c0.9-1.902,1.931-3.852,2.955-5.793c4.177-7.775,9.278-15.656,13.645-23.873
						c2.212-4.09,4.229-8.275,5.826-12.541c0.375-1.074,0.749-2.145,1.12-3.209c0.314-1.082,0.625-2.158,0.936-3.229
						c0.531-2.15,1.027-4.26,1.332-6.455c0.699-4.244,0.717-8.482,0.799-12.498c0.062-4.018,0.102-7.836,0.309-11.365
						c0.197-3.529,0.555-6.768,1.113-9.607c0.604-2.828,1.269-5.285,2.156-7.191c0.214-0.48,0.389-0.941,0.602-1.361
						c0.238-0.412,0.461-0.799,0.668-1.158s0.4-0.689,0.576-0.994c0.193-0.283,0.392-0.512,0.557-0.732
						c0.676-0.865,1.035-1.328,1.035-1.328L513.692,509.722z"/>
				</g>
			</g>
			<path stroke="#000000" stroke-miterlimit="10" d="M554.477,461.996c2.479,3.484,3.266,7.148,1.754,8.189
				c-1.51,1.039-4.746-0.939-7.225-4.422c-2.479-3.48-3.264-7.146-1.754-8.188S551.996,458.515,554.477,461.996z"/>
			<path stroke="#000000" stroke-miterlimit="10" d="M337.213,481.173c-1.236,4.086-3.668,6.988-5.434,6.479
				c-1.766-0.504-2.195-4.229-0.959-8.316c1.236-4.086,3.67-6.988,5.434-6.48S338.447,477.087,337.213,481.173z"/>
			<path stroke="#000000" stroke-miterlimit="10" d="M312.803,543.779c-3.014,3.07-6.533,4.551-7.855,3.303
				c-1.324-1.254,0.049-4.762,3.063-7.834s6.533-4.551,7.857-3.301C317.189,537.197,315.818,540.703,312.803,543.779z"/>
			<path stroke="#000000" stroke-miterlimit="10" d="M439.375,487.886c0.047,1.365-0.939,2.514-2.205,2.563
				c-1.266,0.047-2.33-1.023-2.377-2.389c-0.047-1.369,0.939-2.518,2.207-2.566C438.264,485.447,439.326,486.517,439.375,487.886z"
				/>
			<path stroke="#000000" stroke-miterlimit="10" d="M467.887,419.566c0.045,1.367-0.941,2.514-2.207,2.563
				c-1.264,0.047-2.328-1.021-2.375-2.389c-0.047-1.369,0.939-2.518,2.205-2.564C466.773,417.126,467.838,418.197,467.887,419.566z"
				/>
			<path stroke="#000000" stroke-miterlimit="10" d="M539.34,476.449c0.047,1.367-0.939,2.518-2.205,2.564
				c-1.264,0.049-2.328-1.023-2.375-2.391c-0.049-1.369,0.939-2.514,2.205-2.563C538.229,474.013,539.293,475.082,539.34,476.449z"
				/>
			<path stroke="#000000" stroke-miterlimit="10" d="M539.92,559.683c0.098,2.813-1.582,5.156-3.756,5.24
				c-2.172,0.08-4.012-2.131-4.109-4.943c-0.096-2.814,1.586-5.158,3.758-5.24S539.824,556.869,539.92,559.683z"/>
			<path stroke="#000000" stroke-miterlimit="10" d="M375.301,515.353c0.039,1.141-0.494,2.082-1.189,2.109
				c-0.697,0.023-1.291-0.873-1.332-2.014c-0.039-1.137,0.492-2.076,1.189-2.104S375.26,514.218,375.301,515.353z"/>
			<path stroke="#000000" stroke-miterlimit="10" d="M337.711,550.646c0.039,1.139-0.494,2.078-1.189,2.105
				c-0.697,0.025-1.293-0.871-1.332-2.01c-0.039-1.137,0.494-2.08,1.189-2.105C337.074,548.609,337.67,549.509,337.711,550.646z"/>
			<path stroke="#000000" stroke-miterlimit="10" d="M434.525,546.986c0.109,3.16-1.186,5.771-2.893,5.836
				c-1.707,0.066-3.178-2.443-3.287-5.604c-0.109-3.158,1.186-5.773,2.893-5.836C432.945,541.316,434.416,543.826,434.525,546.986z"
				/>
			<path fill="#070000" stroke="#000000" stroke-miterlimit="10" d="M385.799,568.843c6.805,0.076,10.834-10.322,11.795-15.74
				c0.262-1.471,0.273-3.01,0.465-4.498c0.004,0.08,0.027,0.188,0.01,0.266c-1.525,7.529,0.982,16.58-8.92,20.094
				c-1.473,0.521-2.379,0.602-3.645-0.252"/>
			<path stroke="#000000" stroke-miterlimit="10" d="M392.609,465.357c-0.998,0.039-1.822-0.412-1.844-1.006
				c-0.002-0.078,0.01-0.154,0.035-0.229c-0.172-0.068-0.344-0.131-0.525-0.184c-4.086-1.209-9.736,1.891-12.619,6.918
				c-0.453,0.789-0.811,1.578-1.074,2.35c0.199,0.227,0.326,0.508,0.338,0.822c0.02,0.557-0.326,1.045-0.84,1.285
				c-0.432,3.273,0.904,5.988,3.756,6.83c2.594,0.766,5.814-0.205,8.561-2.297c0.09-0.68,0.701-1.223,1.477-1.283
				c0.986-0.971,1.869-2.096,2.582-3.338C394.668,471.367,394.605,467.496,392.609,465.357z M379.299,475.925
				c-0.25,0.834-0.039,1.912,0.293,2.871c0.273,0.268,0.461,0.611,0.484,1.178c-0.168-0.346-0.336-0.752-0.484-1.178
				c-0.426-0.414-1.066-0.643-1.682-1.219l0.346-0.012c-0.719-3.26,3.744-9.279,6.98-11.484c1.316-0.898,2.59-1.211,4.359-1.094
				c0.018-0.012,0.018,0.404,0.039,0.414C384.793,466.755,380.355,472.378,379.299,475.925z"/>
			<path stroke="#000000" stroke-miterlimit="10" d="M393.414,543.222c-1.803-0.75-3.967-0.223-6.049,1.244
				c0.096,0.182,0.154,0.383,0.16,0.594c0.037,1.105-1.328,2.059-3.057,2.135c-1.164,1.406-2.217,3.105-3.053,5.023
				c-2.275,5.229-2.242,10.479-0.205,13.176c0.174-0.109,0.381-0.18,0.604-0.188c0.643-0.023,1.18,0.439,1.201,1.031
				c0.006,0.197-0.049,0.383-0.143,0.545c0.08,0.039,0.15,0.086,0.232,0.121c3.779,1.57,9.152-2.457,11.998-8.996
				S397.193,544.794,393.414,543.222z"/>
			<path stroke="#000000" stroke-miterlimit="10" d="M489.846,519.345c-1.031-3.893-2.986-7.096-5.213-8.955
				c-0.064,0.008-0.125,0.021-0.189,0.023c-1.031,0.039-1.889-0.547-1.914-1.309c0-0.008,0-0.016,0-0.021
				c-1.066-0.445-2.146-0.568-3.18-0.301c-2.496,0.646-4.117,3.41-4.527,7.074c0.188,0.291,0.316,0.713,0.332,1.195
				c0.021,0.623-0.15,1.164-0.416,1.445c0.059,1.465,0.279,3.012,0.695,4.582c1.818,6.863,6.516,11.594,10.496,10.561
				c2.275-0.592,3.818-2.941,4.385-6.125c-0.141-0.305-0.232-0.672-0.246-1.07c-0.023-0.66,0.17-1.254,0.484-1.617
				C490.568,523.103,490.348,521.242,489.846,519.345z M487.422,529.751c-0.387,1.072-2.502,1.973-3.492,2.311
				c3.686-4.572,1.98-12.238,0.021-17.166c-0.518-1.303-0.992-2.412-1.656-3.65l0.15,0.139
				C487.477,516.396,489.791,523.138,487.422,529.751z"/>
			<path fill="none" stroke="#000000" stroke-miterlimit="10" d="M472.611,457.896c3.67,2.535,3.088,8.297,1.719,12.209
				c-0.346,0.986-0.859,1.932-1.404,2.791c2.225-3.275,3.643-7.441,2.113-11.498c-0.432-1.143-1.172-2.219-1.881-3.154"/>
			<path stroke="#000000" stroke-miterlimit="10" d="M472.109,458.761c-1.086-0.535-2.402-0.092-3.635,1.045
				c0.018,0.063,0.029,0.125,0.033,0.193c0.016,0.482-0.422,0.893-0.977,0.914c-0.021,0-0.039-0.002-0.061-0.004
				c-0.75,0.973-1.432,2.207-1.953,3.623c-1.547,4.219-1.109,8.469,0.982,9.5c1.543,0.76,3.555-0.455,5.127-2.842
				c0-0.016-0.004-0.033-0.004-0.049c-0.027-0.797,0.229-1.455,0.57-1.469c0.084-0.002,0.168,0.033,0.244,0.104
				c0.236-0.477,0.455-0.982,0.65-1.516C474.637,464.044,474.197,459.792,472.109,458.761z M466.016,468.49l0.105-0.064
				c-0.145,2.664,1,4.881,3.543,3.762C467.291,474.402,465.658,471.013,466.016,468.49z"/>
			<path fill="#020000" stroke="#000000" stroke-miterlimit="10" d="M484.828,413.092c1.658,3.117,1.963,6.181,0.682,6.843
				c-1.283,0.662-3.668-1.328-5.328-4.447c-1.658-3.115-1.963-6.177-0.682-6.839C480.785,407.986,483.168,409.975,484.828,413.092z"
				/>
			<path fill="#FFFFFF" stroke="#000000" stroke-miterlimit="10" d="M551.371,565.001c0.113-4.904,2.225-11.488-0.783-15.789
				c-0.002-0.053-0.002-0.105-0.004-0.158c0.002,0.053,0.002,0.105,0.002,0.158c2.348,3.684,3.465,9.93,2.145,14.342
				c-0.326,1.086-0.898,2.039-1.611,2.814c-0.533,0.139,0.199-0.463,0.031-0.881"/>
		</g>
	</g>
</g>
<g id="Torso">
	<g id="Plantilla_body.gif">
	</g>
</g>
<g id="ToonMe">
</g>
<g id="Logo">
	<g id="Luna">
	</g>
</g>
<g id="Paletita">
</g>
<g id="ejercicio_3">
	<g id="Capa_23" display="none">
		<g id="Capa_24" display="inline">
		</g>
	</g>
</g>
<g id="Cartel">
	<g id="abejitas_minimalistas">
		<g id="minimalista_1">
		</g>
		<g id="minimalista">
		</g>
		<g id="minimalista_2_">
		</g>
		<g id="mimimalista">
		</g>
		<g id="minimalista_1_">
		</g>
		<g id="minimalista_4_">
		</g>
		<g id="minimalista_3_">
		</g>
	</g>
	<g id="trazo_abeja_1_">
	</g>
</g>
<g id="Casita_1_">
	<g id="Casita">
	</g>
	<g id="fondo">
	</g>
	<g id="sol">
	</g>
	<g id="nubes">
	</g>
	<g id="arbustos">
	</g>
	<g id="casa">
	</g>
	<g id="reja">
	</g>
	<g id="árboles_derecha">
	</g>
	<g id="árbol_izq">
	</g>
</g>
<g id="Portada">
</g>
</svg>
